<?xml version="1.0" encoding="utf-8"?>
<!-- Generator: Adobe Illustrator 22.0.1, SVG Export Plug-In . SVG Version: 6.00 Build 0)  -->
<svg version="1.1" id="Capa_1" xmlns="http://www.w3.org/2000/svg" xmlns:xlink="http://www.w3.org/1999/xlink" x="0px" y="0px"
	 viewBox="0 0 512 512" style="enable-background:new 0 0 512 512;" xml:space="preserve">
<style type="text/css">
	.st0{fill:#4D4DFF;}
</style>
<g id="mobilephone_路_ecommerce_路_shopping_路_buy_路_cart">
	<path class="st0" d="M136,56h8c4.4,0,8-3.6,8-8s-3.6-8-8-8h-8c-4.4,0-8,3.6-8,8S131.6,56,136,56z"/>
	<path class="st0" d="M176,56h8c4.4,0,8-3.6,8-8s-3.6-8-8-8h-8c-4.4,0-8,3.6-8,8S171.6,56,176,56z"/>
	<path class="st0" d="M488,96H304V56c0-22.1-17.9-40-40-40H56c-22.1,0-40,17.9-40,40v360c0,22.1,17.9,40,40,40h152v32
		c0,4.4,3.6,8,8,8h160c4.4,0,8-3.6,8-8v-48c0-4.4-3.6-8-8-8h-8v-3.1c0-1.6,0.5-3.2,1.4-4.5l5.2-7.8c6.2-9.2,9.4-20,9.4-31.1V304h104
		c4.4,0,8-3.6,8-8V104C496,99.6,492.4,96,488,96z M32,56c0-13.2,10.8-24,24-24h208c13.2,0,24,10.8,24,24v8H32V56z M32,80h256v16h-24
		c-4.4,0-8,3.6-8,8v89.5c-9.7,3.7-16,13-16,23.4V288h-8c-13.2,0-24,10.8-24,24v64H32V80z M208,440H56c-13.2,0-24-10.8-24-24v-24
		h176.5c1,8.8,4.1,17.2,9,24.6l5.2,7.8c0.9,1.3,1.4,2.9,1.4,4.5v3.1h-8C211.6,432,208,435.6,208,440z M368,480H224v-32h144V480z
		 M368,385.4c0,7.9-2.3,15.7-6.7,22.2l-5.3,7.8c-2.6,4-4,8.6-4,13.4v3.1H240v-3.1c0-4.8-1.4-9.4-4-13.4l-5.3-7.8
		c-4.4-6.6-6.7-14.3-6.7-22.2V312c0-4.4,3.6-8,8-8h8v40c0,4.4,3.6,8,8,8s8-3.6,8-8V216.9c-0.1-4.4,3-8.2,7.3-8.9
		c2.4-0.2,4.8,0.7,6.4,2.5c1.5,1.4,2.4,3.4,2.3,5.5v96c0,4.4,3.6,8,8,8s8-3.6,8-8v-40c0-4.4,3.6-8,8-8c2.2,0,4.2,0.9,5.7,2.5
		c1.5,1.4,2.4,3.4,2.3,5.5v40c0,4.4,3.6,8,8,8s8-3.6,8-8v-32c0-4.4,3.6-8,8-8c2.2,0,4.2,0.9,5.7,2.5c1.5,1.4,2.4,3.4,2.3,5.5v32
		c0,4.4,3.6,8,8,8s8-3.6,8-8v-16c0-4.4,3.6-8,8-8c2.2,0,4.2,0.9,5.7,2.5c1.5,1.4,2.4,3.4,2.3,5.5V385.4z M480,288h-97.4
		c-1.2-3.3-3-6.4-5.5-8.9c-6.8-6.7-16.9-8.8-25.8-5.4c-1.1-4-3.2-7.6-6.2-10.6c-7.7-7.4-19.4-9.1-28.8-4c-0.9-1.5-2-2.8-3.2-4
		c-6.6-6.5-16.3-8.7-25-5.8V216c0-6.3-2.5-12.4-7-16.9c-2.6-2.5-5.6-4.5-9-5.7V112h208V288z"/>
	<path class="st0" d="M80,264h-8c-4.4,0-8,3.6-8,8s3.6,8,8,8h8c4.4,0,8-3.6,8-8S84.4,264,80,264z"/>
	<path class="st0" d="M192,264h-80c-4.4,0-8,3.6-8,8s3.6,8,8,8h80c4.4,0,8-3.6,8-8S196.4,264,192,264z"/>
	<path class="st0" d="M80,296h-8c-4.4,0-8,3.6-8,8s3.6,8,8,8h8c4.4,0,8-3.6,8-8S84.4,296,80,296z"/>
	<path class="st0" d="M176,296h-64c-4.4,0-8,3.6-8,8s3.6,8,8,8h64c4.4,0,8-3.6,8-8S180.4,296,176,296z"/>
	<path class="st0" d="M80,328h-8c-4.4,0-8,3.6-8,8s3.6,8,8,8h8c4.4,0,8-3.6,8-8S84.4,328,80,328z"/>
	<path class="st0" d="M176,328h-64c-4.4,0-8,3.6-8,8s3.6,8,8,8h64c4.4,0,8-3.6,8-8S180.4,328,176,328z"/>
	<circle class="st0" cx="360" cy="232" r="16"/>
	<circle class="st0" cx="400" cy="232" r="16"/>
	<path class="st0" d="M328,152h8.9l1.1,8.9v0.2l6,47.9c0.5,4,3.9,7,8,7h56c3.4,0,6.5-2.2,7.6-5.5l16-48c1.4-4.2-0.9-8.7-5.1-10.1
		c-0.8-0.3-1.7-0.4-2.5-0.4h-70.9l-1.1-9c-0.5-4-3.9-7-7.9-7h-16c-4.4,0-8,3.6-8,8S323.6,152,328,152z M412.9,168l-10.7,32H359
		l-4-32H412.9z"/>
	<path class="st0" d="M176,408h-32c-4.4,0-8,3.6-8,8s3.6,8,8,8h32c4.4,0,8-3.6,8-8S180.4,408,176,408z"/>
	<path class="st0" d="M234,120.2l-31.9-8c-0.6-0.2-1.3-0.2-1.9-0.2H184c-4.4,0-8,3.6-8,8c0,8.8-7.2,16-16,16s-16-7.2-16-16
		c0-4.4-3.6-8-8-8h-16.2c-0.7,0-1.3,0.1-2,0.2l-31.8,8c-3.6,0.9-6,4.1-6,7.8v32c0,4.4,3.6,8,8,8c0.7,0,1.3-0.1,1.9-0.2l22.1-5.5V232
		c0,4.4,3.6,8,8,8h80c4.4,0,8-3.6,8-8v-69.8l22.1,5.5c4.3,1.1,8.6-1.5,9.7-5.8c0.2-0.6,0.2-1.3,0.2-1.9v-32
		C240,124.3,237.5,121.1,234,120.2z M224,149.8l-22.1-5.5c-2.4-0.6-4.9-0.1-6.9,1.5c-1.9,1.5-3.1,3.8-3.1,6.3v72h-64v-72
		c0-4.4-3.6-8-8-8c-0.7,0-1.3,0.1-1.9,0.2L96,149.8v-15.5l24.8-6.2h8.2c4.4,17.1,21.8,27.4,39,23c11.3-2.9,20.1-11.7,23-23h8.2
		l24.8,6.2V149.8z"/>
</g>
</svg>
